<svg xmlns="http://www.w3.org/2000/svg" xmlns:xlink="http://www.w3.org/1999/xlink" width="101" zoomAndPan="magnify" viewBox="0 0 151.5 32.999998" height="22" preserveAspectRatio="xMidYMid meet" version="1.0"><defs><clipPath id="39000bd7ec"><path d="M 7.09375 0.0546875 L 144.34375 0.0546875 L 144.34375 32.945312 L 7.09375 32.945312 Z M 7.09375 0.0546875 " clip-rule="nonzero"/></clipPath></defs><g clip-path="url(#39000bd7ec)"><path fill="#2b2d25" d="M 124.933594 25.15625 C 124.03125 26.566406 122.890625 27.8125 121.558594 28.832031 C 118.335938 31.292969 114.203125 32.996094 111.425781 28.917969 C 110.566406 27.65625 110.136719 26.042969 110.136719 24.367188 C 110.136719 19.757812 113.121094 14.582031 116.796875 11.867188 C 120.097656 9.429688 123.585938 9.949219 125.59375 12.019531 C 128.710938 15.230469 127.066406 21.824219 124.933594 25.152344 Z M 122.367188 15.003906 C 120.710938 14.3125 118 17.691406 116.542969 20.621094 C 116.042969 21.625 113.824219 27.195312 115.964844 27.59375 C 120.105469 28.367188 125.410156 16.273438 122.367188 15.003906 Z M 138.386719 18.46875 C 137 19.480469 135.703125 20.609375 134.675781 21.996094 C 132.8125 24.515625 131.988281 27.785156 131.347656 30.800781 C 131.269531 31.175781 130.929688 31.429688 130.546875 31.398438 C 129.382812 31.300781 127.214844 29.925781 126.726562 28.847656 C 126.664062 28.707031 126.644531 28.570312 126.671875 28.414062 C 126.886719 27.113281 127.25 25.773438 127.601562 24.503906 C 128.074219 22.804688 128.601562 21.113281 129.15625 19.4375 C 129.835938 17.394531 130.566406 15.339844 131.398438 13.351562 C 131.875 12.210938 132.425781 10.960938 133.3125 10.070312 C 133.492188 9.894531 133.71875 9.816406 133.96875 9.859375 C 135.304688 10.074219 137.445312 10.949219 138.320312 11.988281 C 138.5625 12.273438 138.558594 12.679688 138.316406 12.964844 C 137.371094 14.070312 136.664062 15.347656 136.085938 16.6875 C 137.667969 15.128906 139.117188 13.496094 140.390625 11.589844 C 140.4375 11.519531 140.484375 11.46875 140.546875 11.417969 C 140.941406 11.101562 141.347656 11.058594 141.835938 11.058594 C 142.648438 11.058594 143.789062 11.339844 144.238281 12.085938 C 144.359375 12.289062 144.378906 12.515625 144.296875 12.738281 C 143.878906 13.855469 143.640625 14.984375 143.640625 16.179688 C 143.640625 16.832031 143.695312 17.785156 144.042969 18.363281 C 144.132812 18.515625 144.164062 18.671875 144.144531 18.84375 C 144.054688 19.554688 142.855469 20.902344 142.328125 21.429688 C 142.097656 21.664062 141.753906 21.71875 141.460938 21.570312 C 140.15625 20.917969 139.054688 19.78125 138.386719 18.46875 Z M 100.847656 15.011719 L 99.742188 15.011719 C 99.496094 15.011719 99.285156 14.910156 99.140625 14.714844 C 98.730469 14.179688 98.480469 12.675781 98.480469 11.996094 C 98.480469 11.785156 98.5625 11.601562 98.71875 11.453125 C 98.875 11.308594 99.0625 11.238281 99.277344 11.253906 C 100.335938 11.3125 101.394531 11.410156 102.453125 11.460938 C 103.46875 9.5625 105.878906 5.476562 107.214844 4.753906 C 107.332031 4.695312 107.441406 4.664062 107.574219 4.664062 C 108.695312 4.664062 111.464844 5.472656 112.199219 6.308594 C 112.4375 6.582031 112.445312 6.980469 112.21875 7.261719 C 111.0625 8.691406 110.097656 10.097656 109.15625 11.613281 C 109.746094 11.589844 110.335938 11.550781 110.925781 11.488281 C 111.160156 11.464844 111.371094 11.535156 111.535156 11.703125 C 111.949219 12.109375 112.1875 12.738281 112.1875 13.308594 C 112.1875 13.625 111.996094 13.894531 111.695312 14.003906 C 110.316406 14.515625 108.75 14.742188 107.265625 14.808594 C 105.515625 18.238281 103.417969 23.421875 103.417969 27.175781 C 103.417969 27.636719 103.472656 28.183594 103.96875 28.308594 C 105.261719 28.128906 106.550781 27.617188 107.574219 26.820312 C 107.75 26.683594 107.957031 26.632812 108.179688 26.671875 C 108.398438 26.714844 108.570312 26.832031 108.6875 27.023438 C 108.828125 27.257812 108.980469 27.539062 109.046875 27.800781 C 109.097656 28.011719 109.0625 28.210938 108.945312 28.390625 C 105.328125 33.871094 97.777344 30.988281 97.777344 26.710938 C 97.777344 25.101562 98.234375 23.160156 98.644531 21.609375 C 99.234375 19.378906 99.988281 17.160156 100.84375 15.015625 Z M 83.308594 20.691406 C 83.449219 20.527344 83.59375 20.363281 83.734375 20.199219 C 84.148438 19.730469 84.570312 19.238281 85.007812 18.789062 C 86.386719 17.378906 88.738281 14.921875 91.039062 13.625 C 92.886719 12.582031 94.152344 12.421875 95.65625 13.429688 C 97.371094 14.582031 97.308594 15.390625 95.960938 16.953125 C 94.335938 19.023438 92.078125 23.769531 92.078125 26.382812 C 92.078125 26.519531 92.089844 26.960938 92.164062 27.121094 C 92.207031 27.128906 92.265625 27.128906 92.296875 27.128906 C 92.777344 27.128906 93.375 26.75 93.933594 26.75 C 94.078125 26.75 94.199219 26.78125 94.324219 26.855469 C 94.757812 27.109375 95.039062 27.753906 95.039062 28.242188 C 95.039062 28.457031 94.953125 28.640625 94.789062 28.785156 C 93.933594 29.535156 92.09375 30.527344 90.933594 30.527344 C 87.714844 30.527344 86.476562 28.683594 86.476562 25.777344 C 86.476562 24.25 87.089844 22.421875 87.765625 20.773438 C 87.40625 21.046875 87.0625 21.335938 86.742188 21.640625 C 84.414062 23.839844 82.445312 26.0625 80.554688 28.628906 C 79.675781 29.734375 78.058594 31.488281 76.722656 31.382812 C 73.59375 31.140625 75.222656 25.226562 75.617188 23.851562 C 76.1875 21.859375 76.917969 19.875 77.769531 17.980469 C 78.324219 16.742188 81.105469 10.898438 82.398438 10.328125 C 82.574219 10.25 82.75 10.238281 82.933594 10.296875 C 84.710938 10.839844 86.113281 12.738281 86.660156 14.414062 C 86.71875 14.582031 86.710938 14.746094 86.640625 14.914062 C 86.3125 15.695312 85.871094 16.464844 85.441406 17.199219 C 84.921875 18.082031 84.382812 18.949219 83.84375 19.820312 C 83.699219 20.058594 83.511719 20.355469 83.304688 20.691406 Z M 38.488281 8.042969 C 38.449219 8.089844 38.410156 8.136719 38.371094 8.183594 C 37.53125 9.210938 36.75 10.308594 36.015625 11.414062 C 34.160156 14.195312 32.488281 17.175781 31.046875 20.191406 C 29.328125 23.785156 27.480469 28.371094 27.101562 32.355469 C 27.082031 32.585938 26.96875 32.777344 26.773438 32.910156 C 26.582031 33.039062 26.363281 33.074219 26.136719 33.007812 C 24.582031 32.542969 22.285156 31.859375 22.285156 29.867188 C 22.285156 26.957031 26.972656 18.519531 28.421875 15.894531 C 30.28125 12.527344 32.234375 9.082031 34.460938 5.945312 C 37.199219 2.085938 39.027344 -1.210938 43.714844 0.667969 C 47.855469 2.332031 47.15625 2.40625 46.011719 5.578125 C 45.617188 6.675781 45.261719 7.785156 44.921875 8.898438 C 44.070312 11.695312 43.335938 14.542969 42.71875 17.398438 C 42.699219 17.484375 42.679688 17.574219 42.660156 17.660156 C 43.246094 16.53125 43.859375 15.417969 44.484375 14.320312 C 46.203125 11.296875 48.089844 8.300781 50.140625 5.488281 C 52.992188 1.578125 53.847656 -1.207031 58.527344 0.667969 C 61.84375 1.730469 62.019531 1.964844 60.761719 5.019531 C 60.394531 5.910156 60.058594 7.078125 59.609375 8.53125 C 57.671875 14.808594 56.726562 23.050781 56.726562 28.308594 C 56.726562 29.59375 56.734375 30.878906 56.804688 32.164062 C 56.816406 32.378906 56.746094 32.566406 56.601562 32.722656 C 56.453125 32.878906 56.269531 32.960938 56.050781 32.960938 C 54.601562 32.960938 51.335938 32.207031 50.511719 30.941406 C 50.433594 30.824219 50.394531 30.707031 50.386719 30.570312 C 50.347656 29.804688 50.347656 29.035156 50.347656 28.269531 C 50.347656 21.621094 51.4375 15.066406 53.140625 8.65625 C 53.269531 8.171875 53.382812 7.679688 53.488281 7.179688 C 52.292969 8.324219 51.113281 9.957031 50.417969 10.984375 C 48.496094 13.820312 46.835938 16.980469 45.464844 20.117188 C 43.878906 23.75 42.277344 28.285156 41.992188 32.261719 C 41.972656 32.570312 41.773438 32.824219 41.480469 32.921875 C 41.230469 33.003906 41.03125 33 40.773438 33 C 39.515625 33 36.148438 32.066406 35.632812 30.816406 C 35.597656 30.734375 35.582031 30.65625 35.578125 30.570312 C 35.539062 29.800781 35.539062 29.035156 35.539062 28.265625 C 35.539062 21.617188 36.621094 15.066406 38.332031 8.65625 C 38.382812 8.453125 38.4375 8.246094 38.488281 8.042969 Z M 19.324219 15.671875 C 19.183594 16.269531 18.964844 16.839844 18.6875 17.382812 C 17.582031 19.539062 15.609375 21.136719 13.628906 22.464844 C 12.617188 23.144531 11.675781 23.65625 12.273438 21.878906 C 12.652344 20.738281 13.585938 19.210938 13.847656 18.847656 C 14.738281 17.609375 15.859375 16.398438 16.808594 15.683594 C 17.277344 15.328125 17.777344 15.023438 18.296875 14.804688 C 18.566406 14.691406 18.855469 14.734375 19.078125 14.921875 C 19.300781 15.109375 19.390625 15.390625 19.324219 15.671875 Z M 12.644531 27.152344 C 12.75 27.832031 12.921875 28.136719 13.539062 28.136719 C 16.011719 28.136719 18.554688 25.492188 20.121094 23.8125 C 20.394531 23.519531 20.855469 23.492188 21.160156 23.753906 C 21.433594 23.988281 21.683594 24.230469 21.914062 24.507812 C 22.140625 24.78125 22.148438 25.164062 21.933594 25.445312 C 20.925781 26.773438 19.574219 28.210938 18.058594 29.375 C 13.640625 32.761719 7.09375 32.1875 7.09375 24.875 C 7.09375 22.402344 7.902344 19.886719 9.070312 17.722656 C 10.902344 14.328125 14.65625 10.199219 18.839844 10.199219 C 18.875 10.199219 18.902344 10.203125 18.9375 10.207031 C 24.621094 10.964844 23.210938 16.867188 20.53125 20.144531 C 18.101562 23.117188 15.511719 24.691406 13.847656 25.410156 C 12.53125 25.980469 12.398438 25.617188 12.644531 27.152344 Z M 70.730469 15.671875 C 70.589844 16.269531 70.371094 16.839844 70.09375 17.382812 C 68.988281 19.539062 67.015625 21.136719 65.039062 22.464844 C 64.023438 23.144531 63.082031 23.65625 63.679688 21.878906 C 64.0625 20.738281 64.996094 19.210938 65.257812 18.847656 C 66.144531 17.609375 67.265625 16.398438 68.214844 15.683594 C 68.683594 15.328125 69.183594 15.023438 69.707031 14.804688 C 69.972656 14.691406 70.265625 14.734375 70.488281 14.921875 C 70.707031 15.109375 70.800781 15.390625 70.734375 15.671875 Z M 64.050781 27.152344 C 64.160156 27.832031 64.328125 28.136719 64.945312 28.136719 C 67.417969 28.136719 69.960938 25.492188 71.527344 23.8125 C 71.804688 23.519531 72.261719 23.492188 72.570312 23.753906 C 72.84375 23.988281 73.089844 24.230469 73.320312 24.507812 C 73.546875 24.78125 73.554688 25.164062 73.339844 25.445312 C 72.332031 26.773438 70.984375 28.210938 69.464844 29.375 C 65.050781 32.761719 58.5 32.1875 58.5 24.875 C 58.5 22.402344 59.3125 19.886719 60.476562 17.722656 C 62.3125 14.328125 66.0625 10.199219 70.246094 10.199219 C 70.28125 10.199219 70.3125 10.203125 70.347656 10.207031 C 76.027344 10.964844 74.617188 16.867188 71.9375 20.144531 C 69.507812 23.117188 66.921875 24.691406 65.253906 25.410156 C 63.941406 25.980469 63.808594 25.617188 64.050781 27.152344 Z M 64.050781 27.152344 " fill-opacity="1" fill-rule="evenodd"/></g></svg>